<svg width="512" height="512" viewBox="0 0 512 512" fill="none" xmlns="http://www.w3.org/2000/svg">
  <rect width="512" height="512" rx="128" fill="#FDFBF0"/>
  <circle cx="256" cy="256" r="220" stroke="#2D5A27" stroke-width="8" stroke-dasharray="20 15"/>
  
  <!-- Stylized Spoon Handle -->
  <path d="M256 420V260" stroke="#8E443D" stroke-width="24" stroke-linecap="round"/>
  
  <!-- Spoon Bowl -->
  <path d="M256 120C180 120 160 180 160 220C160 270 200 310 256 310C312 310 352 270 352 220C352 180 332 120 256 120Z" fill="#E9B824" stroke="#2D5A27" stroke-width="12"/>
  
  <!-- Sprouting Leaves -->
  <path d="M256 120C256 120 280 80 320 80C360 80 360 140 320 140C280 140 256 120 256 120Z" fill="#2D5A27"/>
  <path d="M256 120C256 120 232 80 192 80C152 80 152 140 192 140C232 140 256 120 256 120Z" fill="#2D5A27"/>
  
  <!-- Subtle Shine on Spoon -->
  <path d="M200 200C210 180 230 170 256 170" stroke="white" stroke-width="8" stroke-linecap="round" opacity="0.4"/>
</svg>
